<svg width="180" height="33" viewBox="0 0 180 33" fill="none" xmlns="http://www.w3.org/2000/svg">
  <path d="M0 32.5417V0.458333H4.82227L24.6071 25.1625H22.2185V0.458333H28.0323V32.5417H23.21L3.42516 7.8375H5.81377V32.5417H0Z" fill="white"/>
  <path d="M51.4088 33C48.9451 33 46.6767 32.5875 44.6035 31.7625C42.5304 30.9375 40.7277 29.7917 39.1954 28.325C37.6631 26.8278 36.4763 25.0861 35.635 23.1C34.7938 21.0833 34.3731 18.8833 34.3731 16.5C34.3731 14.1167 34.7938 11.9319 35.635 9.94583C36.4763 7.92917 37.6631 6.1875 39.1954 4.72083C40.7277 3.22361 42.5304 2.0625 44.6035 1.2375C46.6767 0.4125 48.9301 0 51.3637 0C53.8274 0 56.0808 0.4125 58.1239 1.2375C60.1971 2.0625 61.9998 3.22361 63.5321 4.72083C65.0644 6.1875 66.2512 7.92917 67.0925 9.94583C67.9337 11.9319 68.3544 14.1167 68.3544 16.5C68.3544 18.8833 67.9337 21.0833 67.0925 23.1C66.2512 25.1167 65.0644 26.8583 63.5321 28.325C61.9998 29.7917 60.1971 30.9375 58.1239 31.7625C56.0808 32.5875 53.8425 33 51.4088 33ZM51.3637 27.775C52.9561 27.775 54.4284 27.5 55.7804 26.95C57.1324 26.4 58.3042 25.6208 59.2957 24.6125C60.2872 23.5736 61.0533 22.3819 61.5942 21.0375C62.165 19.6625 62.4505 18.15 62.4505 16.5C62.4505 14.85 62.165 13.3528 61.5942 12.0083C61.0533 10.6333 60.2872 9.44167 59.2957 8.43333C58.3042 7.39445 57.1324 6.6 55.7804 6.05C54.4284 5.5 52.9561 5.225 51.3637 5.225C49.7713 5.225 48.2991 5.5 46.9471 6.05C45.6251 6.6 44.4533 7.39445 43.4318 8.43333C42.4403 9.44167 41.6591 10.6333 41.0882 12.0083C40.5474 13.3528 40.277 14.85 40.277 16.5C40.277 18.1194 40.5474 19.6167 41.0882 20.9917C41.6591 22.3667 42.4403 23.5736 43.4318 24.6125C44.4233 25.6208 45.595 26.4 46.9471 26.95C48.2991 27.5 49.7713 27.775 51.3637 27.775Z" fill="white"/>
  <path d="M80.6649 32.5417V5.5H70.2092V0.458333H96.9795V5.5H86.5238V32.5417H80.6649Z" fill="white"/>
  <path d="M101.292 13.7958H116.976V18.7H101.292V13.7958ZM101.743 27.5458H119.545V32.5417H95.8838V0.458333H118.914V5.45417H101.743V27.5458Z" fill="white"/>
  <path d="M135.996 33C133.533 33 131.174 32.6486 128.921 31.9458C126.667 31.2125 124.88 30.2806 123.558 29.15L125.586 24.5208C126.848 25.5292 128.41 26.3694 130.273 27.0417C132.136 27.7139 134.043 28.05 135.996 28.05C137.649 28.05 138.986 27.8667 140.007 27.5C141.029 27.1333 141.78 26.6444 142.261 26.0333C142.742 25.3917 142.982 24.6736 142.982 23.8792C142.982 22.9014 142.636 22.1222 141.945 21.5417C141.254 20.9306 140.353 20.4569 139.241 20.1208C138.16 19.7542 136.943 19.4181 135.591 19.1125C134.269 18.8069 132.932 18.4556 131.58 18.0583C130.258 17.6306 129.041 17.0958 127.929 16.4542C126.848 15.7819 125.961 14.8958 125.27 13.7958C124.579 12.6958 124.234 11.2903 124.234 9.57917C124.234 7.8375 124.684 6.24861 125.586 4.8125C126.517 3.34583 127.914 2.18472 129.777 1.32917C131.67 0.443055 134.058 0 136.943 0C138.836 0 140.714 0.244445 142.576 0.733335C144.439 1.22222 146.062 1.925 147.444 2.84167L145.596 7.47083C144.184 6.61528 142.727 5.98889 141.224 5.59167C139.722 5.16389 138.28 4.95 136.898 4.95C135.275 4.95 133.953 5.14861 132.932 5.54583C131.94 5.94306 131.204 6.4625 130.723 7.10417C130.273 7.74583 130.047 8.47917 130.047 9.30417C130.047 10.2819 130.378 11.0764 131.039 11.6875C131.73 12.2681 132.616 12.7264 133.698 13.0625C134.81 13.3986 136.041 13.7347 137.394 14.0708C138.746 14.3764 140.083 14.7278 141.405 15.125C142.757 15.5222 143.973 16.0417 145.055 16.6833C146.167 17.325 147.053 18.1958 147.714 19.2958C148.405 20.3958 148.751 21.7861 148.751 23.4667C148.751 25.1778 148.285 26.7667 147.354 28.2333C146.452 29.6694 145.055 30.8306 143.162 31.7167C141.269 32.5722 138.881 33 135.996 33Z" fill="white"/>
  <path d="M161.793 32.5417V19.8458L163.1 23.5125L149.399 0.458333H155.663L166.66 19.0208H163.145L174.231 0.458333H180L166.299 23.5125L167.651 19.8458V32.5417H161.793Z" fill="white"/>
</svg>
