<svg width="36" height="35" viewBox="0 0 36 35" fill="none" xmlns="http://www.w3.org/2000/svg">
  <rect width="36" height="35" rx="17.5" fill="#F6FAF9"/>
  <path fill-rule="evenodd" clip-rule="evenodd" d="M23.4002 14C23.4002 16.8995 20.9826 19.25 18.0002 19.25C15.0179 19.25 12.6002 16.8995 12.6002 14C12.6002 11.1005 15.0179 8.75 18.0002 8.75C20.9826 8.75 23.4002 11.1005 23.4002 14ZM21.6002 14C21.6002 15.933 19.9884 17.5 18.0002 17.5C16.012 17.5 14.4002 15.933 14.4002 14C14.4002 12.067 16.012 10.5 18.0002 10.5C19.9884 10.5 21.6002 12.067 21.6002 14Z" fill="#50A486"/>
  <path d="M18.0002 21.875C12.1733 21.875 7.20857 25.2249 5.31738 29.918C5.77809 30.3628 6.26341 30.7835 6.77118 31.178C8.17945 26.8692 12.5973 23.625 18.0002 23.625C23.4032 23.625 27.821 26.8692 29.2293 31.1781C29.737 30.7835 30.2224 30.3628 30.6831 29.918C28.7919 25.2249 23.8272 21.875 18.0002 21.875Z" fill="#50A486"/>
</svg>
